# xmcd
#
# Track frame offsets:
#	150
#	20145
#	39035
#	59985
#	80217
#	100420
#	120465
#	137472
#	153560
#	166767
#	182170
#	196562
#	210900
#	224780
#
# Disc length: 3181 seconds
#
# Revision: 1
# Processed by: cddbd v1.5.1PL0 Copyright (c) Steve Scherf et al.
# Submitted via: audiograbber 1.83.01
#
DISCID=c40c6b0e
DTITLE=Γιώργος Κατσαρός - Δερβισάκι
DYEAR=1900
DGENRE=
TTITLE0=Φονιάς θα γίνω
TTITLE1=Νέοι γέροι ψιθυρίζουν
TTITLE2=Αγία μου Παρασκεύη
TTITLE3=Η σκληρή καρδιά σου
TTITLE4=Μάνα μου είμαι φθυσικός
TTITLE5=Πότε μαύρα πότε άσπρα
TTITLE6=Σαν δεν με θές
TTITLE7=Η ταβέρνα και το ζάρι
TTITLE8=Που πας μεμέτη μου
TTITLE9=Παντέρημος
TTITLE10=Εαν δεν ήσουνα κακιά
TTITLE11=Εχτες ανταμωθήκαμε
TTITLE12=Τέτοιο όμορφο κορίτσι
TTITLE13=Δερβισάκι
EXTD=
EXTT0=
EXTT1=
EXTT2=
EXTT3=
EXTT4=
EXTT5=
EXTT6=
EXTT7=
EXTT8=
EXTT9=
EXTT10=
EXTT11=
EXTT12=
EXTT13=
PLAYORDER=
